# xmcd CD database file generated by OrangeCD 6.1
#
# Track frame offsets:
#	150
#	15202
#	28760
#	42290
#	60585
#	77787
#	93365
#	112637
#	127277
#	146557
#	167702
#	179820
#	197985
#	211627
#
# Disc length: 3133 seconds
#
# Revision: 2
# Processed by: cddbd v1.5.2PL0 Copyright (c) Steve Scherf et al.
# Submitted via: OrangeCD 6.1
#
DISCID=bb0c3b0e
DTITLE=Dale Watson - Every Song I Write Is For You
DYEAR=2001
DGENRE=Country
TTITLE0=Every Song I Write Is For You
TTITLE1=You're The Best Part Of Me
TTITLE2=I'd Deal With The Devil
TTITLE3=One More For Her
TTITLE4=I See Your Face In Every Face I See
TTITLE5=If I Knew Then What I Know Now
TTITLE6=Your Love I'm Gonna Miss
TTITLE7=Money Can't Buy Her Love
TTITLE8=I See My Future
TTITLE9=Our First Times And Our Last Times
TTITLE10=Hey Chico
TTITLE11=Angel In My Dreams
TTITLE12=I Can't Let You Go
TTITLE13=These Things We'll Never Do
EXTD=
EXTT0=
EXTT1=
EXTT2=
EXTT3=
EXTT4=
EXTT5=
EXTT6=
EXTT7=
EXTT8=
EXTT9=
EXTT10=
EXTT11=
EXTT12=
EXTT13=
PLAYORDER=
